<?xml version="1.0" standalone="no"?>
<!DOCTYPE svg PUBLIC "-//W3C//DTD SVG 20010904//EN"
 "http://www.w3.org/TR/2001/REC-SVG-20010904/DTD/svg10.dtd">
<svg version="1.0" xmlns="http://www.w3.org/2000/svg"
 width="300.000000pt" height="179.000000pt" viewBox="0 0 300.000000 179.000000"
 preserveAspectRatio="xMidYMid meet">

<g transform="translate(0.000000,179.000000) scale(0.100000,-0.100000)"
fill="#000000" stroke="none">
<path d="M1782 1763 c-33 -25 -33 -26 -13 -40 37 -25 23 -33 -58 -33 -76 0
-79 1 -85 25 -8 30 -41 34 -56 6 -7 -15 -6 -23 6 -36 14 -14 47 -15 268 -12
138 2 257 6 264 11 14 9 16 86 2 86 -5 0 -10 -18 -10 -40 0 -46 -24 -56 -34
-15 -4 16 -13 25 -26 25 -12 0 -25 -10 -32 -25 -6 -14 -17 -25 -24 -25 -6 0
-15 11 -18 25 -4 16 -13 25 -26 25 -13 0 -24 -10 -30 -25 -16 -41 -40 -32 -40
15 0 22 -3 40 -7 40 -5 0 -8 -17 -8 -37 0 -31 -4 -38 -20 -40 -12 -2 -28 8
-39 23 -19 27 -19 27 5 45 13 10 21 20 19 23 -3 3 -20 -7 -38 -21z m-172 -53
c0 -11 -7 -20 -15 -20 -8 0 -15 9 -15 20 0 11 7 20 15 20 8 0 15 -9 15 -20z
m340 0 c0 -11 -7 -20 -15 -20 -15 0 -21 21 -8 33 12 13 23 7 23 -13z m100 0
c0 -11 -7 -20 -15 -20 -15 0 -21 21 -8 33 12 13 23 7 23 -13z"/>
<path d="M1450 1730 c0 -45 -19 -54 -35 -17 -6 12 -19 22 -30 22 -11 0 -24
-10 -30 -22 -5 -13 -18 -23 -28 -23 -15 0 -16 3 -7 20 9 17 7 20 -15 26 -15 4
-32 1 -40 -6 -13 -11 -13 -14 2 -26 16 -12 12 -13 -29 -14 -41 0 -48 3 -48 20
0 11 -4 20 -10 20 -5 0 -10 -15 -10 -34 0 -28 -4 -35 -22 -38 l-23 -3 23 -7
c14 -4 28 -1 38 9 11 12 43 16 137 17 67 1 128 5 135 9 14 10 17 87 2 87 -5 0
-10 -18 -10 -40z m-140 -9 c0 -14 -18 -23 -30 -16 -6 4 -8 11 -5 16 8 12 35
12 35 0z m90 -11 c0 -11 -7 -20 -15 -20 -8 0 -15 9 -15 20 0 11 7 20 15 20 8
0 15 -9 15 -20z"/>
<path d="M1490 1720 c0 -29 3 -50 7 -46 7 7 5 87 -3 95 -2 2 -4 -20 -4 -49z"/>
<path d="M2140 1720 c0 -32 4 -49 10 -45 6 3 10 24 10 45 0 21 -4 42 -10 45
-6 4 -10 -13 -10 -45z"/>
<path d="M882 1728 c-17 -17 -15 -36 7 -47 10 -6 70 -10 134 -10 123 1 148 9
131 46 -7 16 -8 15 -11 -4 -4 -20 -11 -23 -49 -23 -37 0 -46 4 -54 23 l-9 22
0 -22 c-1 -20 -6 -23 -44 -23 -34 0 -44 4 -52 22 -12 27 -35 34 -53 16z m38
-18 c0 -11 -7 -20 -15 -20 -8 0 -15 9 -15 20 0 11 7 20 15 20 8 0 15 -9 15
-20z"/>
<path d="M1018 1653 c6 -2 18 -2 25 0 6 3 1 5 -13 5 -14 0 -19 -2 -12 -5z"/>
<path d="M880 1536 c0 -25 5 -48 10 -51 6 -3 10 3 10 14 0 27 16 27 30 0 7
-11 14 -18 17 -16 2 3 0 14 -6 25 -7 13 -7 22 1 30 18 18 1 42 -32 42 -29 0
-30 -2 -30 -44z m48 16 c2 -7 -3 -12 -12 -12 -9 0 -16 7 -16 16 0 17 22 14 28
-4z"/>
<path d="M1580 1565 c0 -8 -6 -12 -13 -9 -8 3 -19 -2 -26 -10 -27 -32 12 -83
43 -57 18 15 23 91 6 91 -5 0 -10 -7 -10 -15z m0 -45 c0 -11 -7 -20 -15 -20
-8 0 -15 9 -15 20 0 11 7 20 15 20 8 0 15 -9 15 -20z"/>
<path d="M1756 1564 c-9 -25 -7 -72 4 -79 6 -4 10 9 11 32 l0 38 19 -40 18
-40 13 33 c8 17 17 32 21 32 4 0 9 -15 11 -32 3 -19 4 -12 3 16 -1 57 -23 75
-32 27 -8 -39 -19 -39 -33 -1 -11 33 -26 39 -35 14z"/>
<path d="M968 1535 c-10 -21 -9 -29 5 -43 31 -31 75 19 47 53 -19 22 -39 18
-52 -10z m47 -15 c0 -8 -8 -16 -17 -18 -13 -2 -18 3 -18 18 0 15 5 20 18 18 9
-2 17 -10 17 -18z"/>
<path d="M1050 1547 c0 -10 5 -27 11 -38 7 -15 7 -24 -2 -35 -9 -10 -9 -14 0
-14 15 0 52 81 43 94 -3 6 -7 4 -10 -4 -11 -43 -15 -45 -28 -15 -9 20 -13 24
-14 12z"/>
<path d="M1125 1550 c-3 -6 4 -10 17 -11 l23 0 -22 -9 c-13 -5 -23 -16 -23
-25 0 -23 29 -30 48 -12 13 13 13 21 4 42 -12 25 -36 33 -47 15z m35 -38 c0
-13 -12 -22 -22 -16 -10 6 -1 24 13 24 5 0 9 -4 9 -8z"/>
<path d="M1202 1527 c-2 -41 17 -58 43 -37 17 14 21 60 5 60 -5 0 -10 -11 -10
-25 0 -38 -28 -32 -33 8 -4 31 -4 31 -5 -6z"/>
<path d="M1288 1535 c-6 -14 -7 -31 -2 -42 6 -15 9 -12 12 15 4 39 32 45 32 7
0 -14 5 -25 11 -25 5 0 9 10 7 23 -2 14 2 22 12 22 10 0 14 -8 12 -22 -2 -12
2 -24 8 -28 6 -4 10 7 10 29 0 20 -3 36 -7 37 -71 10 -84 7 -95 -16z"/>
<path d="M1422 1548 c-28 -28 0 -78 35 -63 16 7 15 9 -7 14 l-25 7 23 6 c16 5
23 13 20 25 -4 22 -29 28 -46 11z m33 -18 c-3 -5 -10 -10 -16 -10 -5 0 -9 5
-9 10 0 6 7 10 16 10 8 0 12 -4 9 -10z"/>
<path d="M1670 1532 c0 -22 -5 -32 -15 -32 -9 0 -15 9 -15 25 0 14 -4 25 -10
25 -15 0 -12 -33 4 -56 12 -15 18 -17 33 -8 21 13 29 52 14 67 -8 8 -11 2 -11
-21z"/>
<path d="M1895 1551 c-3 -7 3 -11 17 -12 23 0 23 0 2 -9 -30 -12 -36 -26 -19
-40 25 -21 47 -4 43 32 -3 33 -29 50 -43 29z m30 -41 c3 -5 -1 -10 -10 -10 -9
0 -13 5 -10 10 3 6 8 10 10 10 2 0 7 -4 10 -10z"/>
<path d="M1972 1548 c-15 -15 -16 -54 -2 -63 6 -4 10 7 10 24 0 17 5 31 10 31
6 0 10 5 10 10 0 14 -13 13 -28 -2z"/>
<path d="M2018 1535 c-10 -21 -9 -29 5 -43 31 -31 75 19 47 53 -19 22 -39 18
-52 -10z m47 -15 c0 -8 -8 -16 -17 -18 -13 -2 -18 3 -18 18 0 15 5 20 18 18 9
-2 17 -10 17 -18z"/>
<path d="M2112 1548 c-28 -28 1 -78 35 -62 16 7 15 8 -4 11 -30 6 -32 43 -2
43 11 0 17 5 14 10 -8 14 -28 13 -43 -2z"/>
<path d="M1145 1070 l-350 -350 140 0 140 0 212 212 213 213 213 -213 212
-212 140 0 140 0 -350 350 c-192 193 -352 350 -355 350 -3 0 -163 -157 -355
-350z m700 0 l340 -340 -130 0 -130 0 -212 212 -213 213 -213 -213 -212 -212
-130 0 -130 0 340 340 c187 187 342 340 345 340 3 0 158 -153 345 -340z"/>
<path d="M1340 875 l-155 -155 315 0 315 0 -155 155 c-85 85 -157 155 -160
155 -3 0 -75 -70 -160 -155z"/>
<path d="M290 680 c0 -6 139 -10 396 -10 261 0 393 3 389 10 -8 14 -785 14
-785 0z"/>
<path d="M1925 680 c-4 -7 128 -10 389 -10 257 0 396 4 396 10 0 6 -136 10
-389 10 -249 0 -392 -4 -396 -10z"/>
<path d="M340 639 c0 -5 5 -7 10 -4 6 3 10 8 10 11 0 2 -4 4 -10 4 -5 0 -10
-5 -10 -11z"/>
<path d="M720 605 l0 -45 -66 0 c-57 0 -67 3 -71 20 -7 26 -19 26 -26 0 -5
-19 -12 -21 -84 -18 -71 3 -78 5 -81 25 -6 42 -62 35 -62 -8 0 -27 24 -30 225
-27 l180 3 3 48 c2 28 -1 47 -7 47 -6 0 -11 -20 -11 -45z m-342 -23 c4 -24 -7
-29 -25 -11 -14 14 -5 41 11 36 6 -2 12 -13 14 -25z"/>
<path d="M764 605 l1 -50 160 0 160 0 3 48 c2 28 -1 47 -7 47 -6 0 -11 -20
-11 -45 l0 -46 -62 3 c-56 3 -63 5 -66 25 -3 22 -27 37 -44 27 -5 -3 -13 -17
-19 -31 -8 -22 -14 -24 -56 -21 l-48 3 -6 45 -7 45 2 -50z m166 -20 c0 -8 -5
-17 -11 -21 -16 -9 -30 18 -17 33 12 15 28 8 28 -12z"/>
<path d="M1110 601 c0 -28 5 -51 10 -51 6 0 10 20 10 44 0 25 -4 48 -10 51 -6
4 -10 -13 -10 -44z"/>
<path d="M1388 644 c-10 -9 -10 -56 -2 -78 5 -14 51 -16 421 -16 l414 1 -3 26
c-6 51 -55 56 -62 7 -2 -16 -13 -19 -80 -22 -71 -3 -78 -1 -83 18 -5 18 -25
30 -22 13 5 -30 -4 -33 -90 -33 -84 0 -90 1 -93 21 -5 35 -33 47 -57 25 -12
-11 -21 -15 -22 -10 0 5 -4 -1 -9 -14 -9 -22 -12 -23 -152 -20 l-143 3 -5 43
c-3 24 -8 40 -12 36z m812 -65 c0 -20 -15 -26 -25 -9 -9 15 3 43 15 35 5 -3
10 -15 10 -26z m-425 1 c0 -9 -11 -16 -27 -18 -27 -3 -38 14 -21 32 12 12 48
2 48 -14z"/>
<path d="M2250 606 c0 -26 -5 -46 -12 -49 -7 -3 6 -6 28 -6 45 -1 54 9 54 59
0 46 -19 45 -22 -1 -4 -57 -28 -65 -28 -10 0 22 -4 43 -10 46 -6 4 -10 -11
-10 -39z"/>
<path d="M2340 601 c0 -28 5 -51 10 -51 6 0 10 20 10 44 0 25 -4 48 -10 51 -6
4 -10 -13 -10 -44z"/>
<path d="M2543 600 c0 -30 2 -43 4 -27 2 15 2 39 0 55 -2 15 -4 2 -4 -28z"/>
<path d="M1968 623 c6 -2 18 -2 25 0 6 3 1 5 -13 5 -14 0 -19 -2 -12 -5z"/>
<path d="M1197 613 c-16 -15 -6 -55 14 -60 21 -6 21 -7 4 -20 -15 -10 -15 -13
-4 -13 23 0 39 21 39 50 0 38 -33 64 -53 43z m35 -45 c-16 -16 -37 4 -28 28 6
16 8 16 23 1 13 -13 15 -19 5 -29z"/>
<path d="M2431 606 c-19 -23 -4 -58 22 -54 17 2 22 10 22 33 0 34 -24 45 -44
21z m39 -21 c0 -8 -5 -17 -11 -21 -16 -9 -30 18 -17 33 12 15 28 8 28 -12z"/>
<path d="M2617 613 c-16 -15 -6 -55 14 -60 21 -6 21 -7 4 -20 -15 -10 -15 -13
-4 -13 23 0 39 21 39 50 0 38 -33 64 -53 43z m35 -45 c-16 -16 -37 4 -28 28 6
16 8 16 23 1 13 -13 15 -19 5 -29z"/>
<path d="M1333 599 c24 -14 21 -37 -5 -42 -17 -3 -14 -5 10 -6 17 0 32 4 32
10 0 21 -21 49 -38 49 -16 -1 -16 -1 1 -11z"/>
<path d="M2500 572 c0 -15 -5 -33 -12 -40 -9 -9 -8 -12 4 -12 9 0 19 7 22 16
9 25 7 64 -4 64 -5 0 -10 -13 -10 -28z"/>
<path d="M2568 563 c-6 -42 -4 -48 11 -38 13 8 15 75 2 75 -5 0 -11 -17 -13
-37z"/>
<path d="M194 425 c-3 -19 -3 -43 2 -52 6 -14 9 -10 13 17 l6 35 12 -32 c7
-18 14 -33 17 -33 3 0 12 15 20 33 14 32 14 32 15 5 1 -15 6 -30 12 -33 7 -5
9 7 7 36 -4 52 -24 62 -40 19 l-11 -32 -12 30 c-19 45 -33 47 -41 7z"/>
<path d="M325 450 c-3 -5 -1 -10 4 -10 6 0 11 5 11 10 0 6 -2 10 -4 10 -3 0
-8 -4 -11 -10z"/>
<path d="M455 450 c-3 -5 -1 -10 4 -10 6 0 11 5 11 10 0 6 -2 10 -4 10 -3 0
-8 -4 -11 -10z"/>
<path d="M912 448 c-1 -9 -12 -18 -24 -20 -28 -4 -32 -45 -6 -62 27 -16 40 4
35 55 -2 24 -4 36 -5 27z m-5 -44 c9 -23 -11 -38 -26 -20 -13 16 -7 36 10 36
5 0 12 -7 16 -16z"/>
<path d="M1111 444 c0 -11 3 -14 6 -6 3 7 2 16 -1 19 -3 4 -6 -2 -5 -13z"/>
<path d="M1148 435 c-8 -19 -8 -31 0 -50 12 -25 45 -34 57 -15 4 6 -5 10 -19
10 -32 0 -34 15 -3 25 l22 8 -22 4 c-31 6 -29 23 3 23 14 0 23 4 19 10 -12 19
-45 10 -57 -15z"/>
<path d="M1665 450 c-3 -5 -1 -10 4 -10 6 0 11 5 11 10 0 6 -2 10 -4 10 -3 0
-8 -4 -11 -10z"/>
<path d="M2040 446 c0 -8 -10 -16 -22 -18 -29 -4 -32 -46 -5 -62 15 -9 21 -7
33 8 16 23 19 72 4 81 -5 3 -10 -1 -10 -9z m-5 -49 c0 -26 -20 -25 -23 2 -3
16 1 22 10 19 7 -3 13 -12 13 -21z"/>
<path d="M2267 453 c-11 -10 -8 -93 3 -93 6 0 10 9 10 20 0 11 7 20 15 20 8 0
15 5 15 10 0 6 -7 10 -15 10 -8 0 -15 5 -15 10 0 6 7 10 15 10 8 0 15 5 15 10
0 11 -33 14 -43 3z"/>
<path d="M2330 450 c0 -5 5 -10 10 -10 6 0 10 5 10 10 0 6 -4 10 -10 10 -5 0
-10 -4 -10 -10z"/>
<path d="M570 413 c0 -40 14 -63 28 -48 4 4 1 10 -5 12 -20 7 -16 43 5 44 13
0 14 2 2 6 -8 3 -18 11 -22 17 -4 6 -8 -8 -8 -31z"/>
<path d="M1060 411 c0 -22 5 -43 11 -46 15 -10 16 -5 11 43 -5 53 -22 55 -22
3z"/>
<path d="M1900 405 c0 -35 22 -57 38 -40 4 4 1 10 -5 12 -7 3 -13 13 -13 24 0
10 6 19 13 19 8 0 7 4 -3 10 -25 16 -30 12 -30 -25z"/>
<path d="M320 401 c0 -17 5 -33 11 -36 15 -10 17 -4 12 33 -6 40 -23 42 -23 3z"/>
<path d="M377 424 c-4 -4 -6 -21 -6 -38 l1 -31 7 29 c8 38 31 47 31 12 0 -13
5 -28 11 -31 7 -5 9 5 7 26 -2 25 -8 35 -23 37 -12 2 -24 0 -28 -4z"/>
<path d="M450 401 c0 -17 5 -33 11 -36 15 -10 17 -4 12 33 -6 40 -23 42 -23 3z"/>
<path d="M495 420 c-8 -14 3 -30 21 -30 8 0 12 -5 9 -10 -4 -6 -11 -8 -16 -5
-5 4 -9 1 -9 -4 0 -16 26 -13 40 5 11 13 10 16 -8 21 -26 6 -29 20 -4 26 13 4
12 5 -5 6 -12 0 -25 -3 -28 -9z"/>
<path d="M627 424 c-13 -13 -7 -52 9 -58 23 -9 34 -7 34 5 0 5 -4 7 -10 4 -5
-3 -16 -3 -22 1 -9 6 -5 10 12 14 14 3 25 12 25 20 0 16 -36 26 -48 14z m33
-14 c0 -5 -7 -10 -16 -10 -8 0 -12 5 -9 10 3 6 10 10 16 10 5 0 9 -4 9 -10z"/>
<path d="M701 393 c1 -28 3 -31 6 -13 3 14 10 31 15 38 8 9 6 12 -6 12 -12 0
-16 -9 -15 -37z"/>
<path d="M751 412 c-12 -23 4 -52 29 -52 11 0 20 4 20 10 0 5 -6 7 -14 4 -8
-3 -17 -1 -21 5 -3 6 2 11 13 11 24 0 32 8 25 26 -7 20 -40 17 -52 -4z m39 -2
c0 -5 -7 -10 -15 -10 -8 0 -15 5 -15 10 0 6 7 10 15 10 8 0 15 -4 15 -10z"/>
<path d="M946 414 c-9 -22 11 -54 34 -54 11 0 20 4 20 10 0 5 -6 7 -14 4 -8
-3 -17 -1 -21 5 -3 7 2 11 14 11 14 0 21 6 21 20 0 25 -45 28 -54 4z m44 -4
c0 -5 -7 -10 -15 -10 -8 0 -15 5 -15 10 0 6 7 10 15 10 8 0 15 -4 15 -10z"/>
<path d="M1223 414 c-8 -20 8 -48 31 -52 23 -5 20 15 -4 21 -23 6 -18 33 8 40
12 3 10 5 -6 6 -13 0 -25 -6 -29 -15z"/>
<path d="M1294 416 c-11 -29 0 -51 26 -51 21 0 25 5 25 30 0 24 -5 31 -23 33
-13 2 -24 -3 -28 -12z m41 -6 c10 -16 -16 -43 -28 -31 -11 11 -2 41 12 41 5 0
13 -5 16 -10z"/>
<path d="M1377 424 c-10 -11 -8 -52 3 -59 6 -4 10 7 10 25 0 40 22 36 32 -6 6
-27 6 -27 5 6 -2 27 -7 36 -22 38 -12 2 -24 0 -28 -4z"/>
<path d="M1455 410 c-7 -23 10 -50 30 -50 20 0 37 27 30 50 -9 27 -51 27 -60
0z m43 -12 c-2 -13 -7 -23 -13 -23 -5 0 -11 10 -13 23 -2 15 2 22 13 22 11 0
15 -7 13 -22z"/>
<path d="M1547 424 c-4 -4 -6 -21 -6 -38 l1 -31 7 29 c8 38 31 47 31 12 0 -13
5 -28 10 -31 6 -4 10 7 10 24 0 17 5 31 10 31 6 0 10 -11 10 -24 0 -14 5 -28
11 -31 7 -5 9 5 7 26 -3 32 -6 34 -43 37 -23 2 -44 0 -48 -4z"/>
<path d="M1670 397 c0 -20 4 -37 10 -37 5 0 7 14 3 33 -8 45 -13 47 -13 4z"/>
<path d="M1714 416 c-10 -26 1 -51 24 -54 12 -2 22 1 22 7 0 6 -6 8 -14 5 -8
-3 -17 -1 -21 5 -3 6 2 11 13 11 24 0 32 8 25 26 -7 18 -42 18 -49 0z m36 -6
c0 -5 -7 -10 -15 -10 -8 0 -15 5 -15 10 0 6 7 10 15 10 8 0 15 -4 15 -10z"/>
<path d="M1824 416 c-13 -35 25 -71 49 -47 9 9 8 11 -4 6 -10 -4 -20 -2 -23 3
-3 5 4 12 15 15 12 3 19 12 17 19 -7 19 -47 22 -54 4z m36 -6 c0 -5 -4 -10
-10 -10 -5 0 -10 5 -10 10 0 6 5 10 10 10 6 0 10 -4 10 -10z"/>
<path d="M2084 416 c-10 -26 1 -51 24 -54 12 -2 22 1 22 7 0 6 -6 8 -14 5 -8
-3 -17 -1 -21 5 -3 6 2 11 13 11 24 0 32 8 25 26 -7 18 -42 18 -49 0z m36 -6
c0 -5 -7 -10 -15 -10 -8 0 -15 5 -15 10 0 6 7 10 15 10 8 0 15 -4 15 -10z"/>
<path d="M2155 420 c-8 -14 3 -30 21 -30 8 0 13 -4 9 -10 -3 -5 -13 -6 -23 -3
-13 5 -15 3 -5 -7 6 -7 19 -10 27 -7 20 8 21 37 1 37 -21 0 -19 18 3 23 13 4
12 5 -5 6 -12 0 -25 -3 -28 -9z"/>
<path d="M2330 401 c0 -17 5 -33 11 -36 15 -10 17 -4 12 33 -6 40 -23 42 -23
3z"/>
<path d="M2387 424 c-4 -4 -6 -21 -6 -38 l1 -31 7 29 c8 38 31 47 31 12 0 -13
5 -28 11 -31 7 -5 9 5 7 26 -2 25 -8 35 -23 37 -12 2 -24 0 -28 -4z"/>
<path d="M2478 423 c28 -6 29 -23 1 -23 -14 0 -19 -5 -17 -17 2 -10 12 -18 23
-18 15 0 21 8 23 33 3 29 1 32 -25 31 -23 -2 -24 -2 -5 -6z m22 -37 c0 -11
-19 -15 -25 -6 -3 5 1 10 9 10 9 0 16 -2 16 -4z"/>
<path d="M2534 404 c-4 -14 -2 -30 5 -37 8 -8 11 -3 11 22 0 41 22 37 31 -5 6
-27 7 -27 8 9 1 33 -2 37 -24 37 -18 0 -26 -7 -31 -26z"/>
<path d="M2621 416 c-9 -11 -10 -20 -1 -35 11 -22 35 -28 45 -11 3 6 -3 10
-14 10 -28 0 -27 28 2 40 22 9 22 9 1 9 -12 1 -27 -5 -33 -13z"/>
<path d="M2685 410 c-11 -34 32 -68 50 -40 3 5 0 7 -8 4 -8 -3 -18 -1 -22 5
-3 7 2 11 14 11 14 0 21 6 21 20 0 28 -46 28 -55 0z m45 0 c0 -5 -7 -10 -15
-10 -8 0 -15 5 -15 10 0 6 7 10 15 10 8 0 15 -4 15 -10z"/>
<path d="M2760 415 c0 -9 7 -18 15 -21 8 -4 15 -11 15 -16 0 -6 -8 -7 -17 -3
-14 5 -15 3 -6 -6 14 -14 43 -5 43 15 0 7 -10 17 -22 21 l-23 7 25 8 25 8 -27
1 c-19 1 -28 -4 -28 -14z"/>
<path d="M267 303 c150 -2 396 -2 545 0 150 1 28 2 -272 2 -300 0 -422 -1
-273 -2z"/>
<path d="M2187 303 c150 -2 396 -2 545 0 150 1 28 2 -272 2 -300 0 -422 -1
-273 -2z"/>
<path d="M1358 148 l142 -143 142 143 143 142 -285 0 -285 0 143 -142z m272 5
c-69 -70 -126 -130 -128 -132 -1 -3 -62 54 -135 127 l-132 132 260 0 260 0
-125 -127z"/>
</g>
</svg>
